<svg width="511" height="512" viewBox="0 0 511 512" fill="none" xmlns="http://www.w3.org/2000/svg">
<g clip-path="url(#clip0)">
<path d="M86.9 511.1C79.2 509.1 71.4 507.7 63.9 505C25.9 491.5 0.100024 454.9 0.100024 414.4C2.44156e-05 288.2 2.44156e-05 161.9 0.100024 35.7C0.100024 7.7 28.6 -9 52.5 5.1C65.1 12.5 69.6 24.3 69.6 38.4C69.6 83.5 69.6 128.5 69.6 173.6C69.6 252.6 69.7 331.6 69.5 410.6C69.5 423.2 73.6 433.3 85.4 438.6C90.3 440.8 96.3 441.5 101.8 441.5C225.2 441.7 348.6 441.6 472 441.6C485 441.6 496.4 445 504.2 456.1C507.2 460.4 508.8 465.5 511.1 470.3C511.1 474.6 511.1 478.9 511.1 483.3C508.7 488.1 506.8 493.2 503.8 497.7C498.9 505 491.2 508.4 483.2 511.3C351 511.1 218.9 511.1 86.9 511.1Z" fill="black"/>
<path d="M343.7 210.2C343.7 264.1 343.7 318 343.7 371.9C343.7 382.4 339.9 388.4 331.6 390.7C329.7 391.2 327.7 391.3 325.7 391.3C309.9 391.3 294.1 391.3 278.3 391.3C266.1 391.3 259.7 384.8 259.6 372.4C259.6 338.8 259.6 305.2 259.6 271.6C259.6 197.3 259.6 122.9 259.6 48.6C259.6 42.5 260.4 36.7 265.6 33C268.5 30.9 272.5 29.3 276 29.2C293.1 28.8 310.3 28.9 327.4 29.1C336.5 29.2 342.7 35.2 343.5 44.1C343.7 46.2 343.7 48.4 343.7 50.6C343.7 103.7 343.7 157 343.7 210.2Z" fill="black"/>
<path d="M205.2 273.6C205.2 306 205.2 338.4 205.2 370.9C205.2 373.9 205.1 376.9 204.4 379.8C202.8 386.5 196.2 391.3 188.7 391.3C172.1 391.4 155.4 391.4 138.8 391.3C128.5 391.3 122 385.2 121.1 375C121 374 121 373 121 372C121 306 121 240 121 174C121 171.9 121.2 169.7 121.6 167.6C123.1 160.2 128.5 154.9 136 154.8C153.9 154.5 171.9 154.5 189.8 154.8C198 154.9 203.6 160.7 204.6 168.9C204.9 171.2 205 173.5 205 175.9C205.2 208.4 205.2 241 205.2 273.6Z" fill="black"/>
<path d="M482.2 313.4C482.2 333.2 482.2 353 482.2 372.8C482.2 385.3 476 391.4 463.5 391.4C447.7 391.4 431.9 391.4 416.1 391.4C405.1 391.4 398.4 384.7 398.4 373.7C398.4 333.5 398.4 293.2 398.4 253C398.4 242.4 404.7 235.6 415.2 235.5C432 235.3 448.8 235.2 465.6 235.5C476 235.7 482.2 242.2 482.2 252.6C482.2 272.8 482.2 293.1 482.2 313.4Z" fill="black"/>
</g>
<defs>
<clipPath id="clip0">
<rect width="511" height="511.1" fill="white"/>
</clipPath>
</defs>
</svg>
